<mxfile host="app.diagrams.net" modified="2021-04-15T11:42:53.940Z" agent="5.0 (Windows NT 10.0; Win64; x64) AppleWebKit/537.36 (KHTML, like Gecko) Chrome/89.0.4389.114 Safari/537.36" etag="4x2ZV2KYDyZb-F9fJU5r" version="14.5.10" type="github">
  <diagram id="C5RBs43oDa-KdzZeNtuy" name="Page-1">
    <mxGraphModel dx="1422" dy="1931" grid="1" gridSize="10" guides="1" tooltips="1" connect="1" arrows="1" fold="1" page="1" pageScale="1" pageWidth="827" pageHeight="1169" math="0" shadow="0">
      <root>
        <mxCell id="WIyWlLk6GJQsqaUBKTNV-0" />
        <mxCell id="WIyWlLk6GJQsqaUBKTNV-1" parent="WIyWlLk6GJQsqaUBKTNV-0" />
        <mxCell id="jvDP5jBHSejzYiG8BgBr-7" value="Yes" style="edgeStyle=orthogonalEdgeStyle;rounded=0;orthogonalLoop=1;jettySize=auto;html=1;exitX=0.5;exitY=1;exitDx=0;exitDy=0;entryX=0.5;entryY=0;entryDx=0;entryDy=0;" edge="1" parent="WIyWlLk6GJQsqaUBKTNV-1" source="jvDP5jBHSejzYiG8BgBr-2" target="jvDP5jBHSejzYiG8BgBr-6">
          <mxGeometry relative="1" as="geometry" />
        </mxCell>
        <mxCell id="jvDP5jBHSejzYiG8BgBr-2" value="&lt;font style=&quot;font-size: 11px&quot;&gt;Has one second elapsed since last stuck check?&lt;/font&gt;" style="rhombus;whiteSpace=wrap;html=1;" vertex="1" parent="WIyWlLk6GJQsqaUBKTNV-1">
          <mxGeometry x="310" y="-1130" width="120" height="120" as="geometry" />
        </mxCell>
        <mxCell id="jvDP5jBHSejzYiG8BgBr-4" value="No" style="edgeStyle=orthogonalEdgeStyle;rounded=0;orthogonalLoop=1;jettySize=auto;html=1;exitX=1;exitY=0.5;exitDx=0;exitDy=0;entryX=0.5;entryY=0;entryDx=0;entryDy=0;" edge="1" parent="WIyWlLk6GJQsqaUBKTNV-1" source="jvDP5jBHSejzYiG8BgBr-2" target="jvDP5jBHSejzYiG8BgBr-2">
          <mxGeometry relative="1" as="geometry">
            <Array as="points">
              <mxPoint x="450" y="-1070" />
              <mxPoint x="450" y="-1160" />
              <mxPoint x="370" y="-1160" />
            </Array>
          </mxGeometry>
        </mxCell>
        <mxCell id="jvDP5jBHSejzYiG8BgBr-5" value="&lt;font style=&quot;font-size: 10px&quot;&gt;Is tof.range &amp;lt;&lt;/font&gt;" style="rhombus;whiteSpace=wrap;html=1;" vertex="1" parent="WIyWlLk6GJQsqaUBKTNV-1">
          <mxGeometry x="330" y="-880" width="80" height="80" as="geometry" />
        </mxCell>
        <mxCell id="jvDP5jBHSejzYiG8BgBr-6" value="Reset stuck_check_last" style="rounded=1;whiteSpace=wrap;html=1;" vertex="1" parent="WIyWlLk6GJQsqaUBKTNV-1">
          <mxGeometry x="310" y="-970" width="120" height="60" as="geometry" />
        </mxCell>
      </root>
    </mxGraphModel>
  </diagram>
</mxfile>
